<svg width="22" height="22" viewBox="0 0 22 22" fill="none" xmlns="http://www.w3.org/2000/svg">
<path d="M1.66675 18.0007C1.66675 16.763 2.15841 15.576 3.03358 14.7008C3.90875 13.8256 5.09574 13.334 6.33342 13.334H15.6667C16.9044 13.334 18.0914 13.8256 18.9666 14.7008C19.8418 15.576 20.3334 16.763 20.3334 18.0007C20.3334 18.6195 20.0876 19.213 19.65 19.6506C19.2124 20.0882 18.6189 20.334 18.0001 20.334H4.00008C3.38124 20.334 2.78775 20.0882 2.35017 19.6506C1.91258 19.213 1.66675 18.6195 1.66675 18.0007Z" stroke="#8E8E93" stroke-width="1.5" stroke-linejoin="round"/>
<path d="M11 8.66699C12.933 8.66699 14.5 7.09999 14.5 5.16699C14.5 3.234 12.933 1.66699 11 1.66699C9.067 1.66699 7.5 3.234 7.5 5.16699C7.5 7.09999 9.067 8.66699 11 8.66699Z" stroke="#8E8E93" stroke-width="1.5"/>
</svg>
